<svg width="14" height="45" viewBox="0 0 14 45" fill="none" xmlns="http://www.w3.org/2000/svg">
<g clip-path="url(#clip0_31_1028)">
<path d="M6.5 36.9L6.5 9.83506e-07L7.5 8.52372e-07L7.5 36.9L14 35C11.2 37.6 8.60001 41.7 7.00001 45C5.40001 41.7 2.80001 37.6 4.5897e-06 35L6.5 36.9Z" fill="white"/>
<path d="M6.5 36.9L6.5 9.83506e-07L7.5 8.52372e-07L7.5 36.9L14 35C11.2 37.6 8.60001 41.7 7.00001 45C5.40001 41.7 2.80001 37.6 4.5897e-06 35L6.5 36.9Z" fill="white"/>
</g>
<defs>
<clipPath id="clip0_31_1028">
<rect width="45" height="14" fill="white" transform="translate(14) rotate(90)"/>
</clipPath>
</defs>
</svg>
