<svg width="48" height="48" viewBox="0 0 48 48" fill="none" xmlns="http://www.w3.org/2000/svg">
<rect width="48" height="48" fill="#333333"/>
<path fill-rule="evenodd" clip-rule="evenodd" d="M20.023 18.1108V16.4078C19.432 16.3241 18.8359 16.2807 18.239 16.2778C10.939 16.2778 5 22.2178 5 29.5178C5 33.9958 7.238 37.9598 10.652 40.3568C8.36604 37.9122 7.09516 34.6898 7.097 31.3428C7.097 24.1468 12.867 18.2788 20.023 18.1108Z" fill="#00F2EA"/>
<path fill-rule="evenodd" clip-rule="evenodd" d="M20.3351 37.3889C23.5921 37.3889 26.2491 34.7979 26.3701 31.5689L26.3811 2.74395H31.6471C31.5347 2.1421 31.4778 1.5312 31.4771 0.918945H24.2851L24.2731 29.7449C24.1531 32.9729 21.4951 35.5629 18.2391 35.5629C17.2615 35.5633 16.2987 35.3251 15.4341 34.8689C15.9924 35.6478 16.728 36.2826 17.5803 36.7208C18.4325 37.159 19.3768 37.388 20.3351 37.3889ZM41.4841 12.5279V10.9259C39.5488 10.9277 37.6551 10.3647 36.0351 9.30595C37.4554 10.9412 39.3667 12.0718 41.4841 12.5279Z" fill="#00F2EA"/>
<path fill-rule="evenodd" clip-rule="evenodd" d="M36.0351 9.30487C34.4475 7.48834 33.5731 5.1574 33.5741 2.74487H31.6471C31.8966 4.07832 32.4142 5.34726 33.1684 6.47485C33.9227 7.60244 34.8979 8.56521 36.0351 9.30487ZM18.2391 23.4709C16.6362 23.4727 15.0994 24.1103 13.966 25.2438C12.8326 26.3772 12.195 27.9139 12.1931 29.5169C12.1942 30.6195 12.4966 31.7009 13.0676 32.6442C13.6386 33.5875 14.4566 34.3567 15.4331 34.8689C14.6896 33.8435 14.2892 32.6094 14.2891 31.3429C14.2907 29.7398 14.9282 28.2028 16.0616 27.0691C17.1951 25.9354 18.732 25.2977 20.3351 25.2959C20.9581 25.2959 21.5551 25.3989 22.1191 25.5759V18.2329C21.5281 18.1492 20.932 18.1057 20.3351 18.1029C20.2301 18.1029 20.1271 18.1089 20.0231 18.1109V23.7509C19.4462 23.5672 18.8446 23.4728 18.2391 23.4709Z" fill="#FF004F"/>
<path fill-rule="evenodd" clip-rule="evenodd" d="M41.4841 12.5279V18.1179C37.7541 18.1179 34.2991 16.9249 31.4771 14.8999V29.5169C31.4771 36.8169 25.5391 42.7559 18.2391 42.7559C15.4181 42.7559 12.8021 41.8659 10.6521 40.3559C11.8882 41.6889 13.3863 42.7522 15.0525 43.4792C16.7187 44.2063 18.5172 44.5813 20.3351 44.5809C27.6351 44.5809 33.5741 38.6419 33.5741 31.3429V16.7259C36.4894 18.8222 39.9904 19.948 43.5811 19.9439V12.7499C42.8611 12.7499 42.1611 12.6729 41.4841 12.5279Z" fill="#FF004F"/>
<path fill-rule="evenodd" clip-rule="evenodd" d="M31.4769 29.5169V14.8999C34.3921 16.9964 37.8932 18.1223 41.4839 18.1179V12.5279C39.3668 12.0713 37.4548 10.9404 36.0349 9.30487C34.8977 8.56521 33.9225 7.60244 33.1682 6.47485C32.414 5.34726 31.8964 4.07832 31.6469 2.74487H26.3809L26.3699 31.5699C26.2489 34.7979 23.5919 37.3889 20.3349 37.3889C19.3766 37.3879 18.4324 37.1588 17.5802 36.7206C16.7279 36.2824 15.9923 35.6477 15.4339 34.8689C14.4572 34.3569 13.6391 33.5877 13.0678 32.6444C12.4966 31.7011 12.1941 30.6196 12.1929 29.5169C12.1948 27.9139 12.8324 26.3772 13.9658 25.2438C15.0992 24.1103 16.636 23.4727 18.2389 23.4709C18.8609 23.4709 19.4579 23.5729 20.0229 23.7509V18.1109C12.8669 18.2789 7.09692 24.1469 7.09692 31.3429C7.09692 34.8229 8.44892 37.9909 10.6519 40.3569C12.8728 41.9203 15.523 42.7583 18.2389 42.7559C25.5389 42.7559 31.4769 36.8169 31.4769 29.5169Z" fill="white"/>
</svg>
