<svg width="429" height="176" viewBox="0 0 429 176" fill="none" xmlns="http://www.w3.org/2000/svg">
<g filter="url(#filter0_d_1_215)">
<path fill-rule="evenodd" clip-rule="evenodd" d="M134.701 94.1001C131.801 101.2 117.401 117.7 103.501 113.8C88.6005 109.7 89.7005 88.2001 108.201 85.8001C115.701 84.9001 130.101 90.4001 134.701 94.1001ZM146.201 73.8001C145.201 77.2001 143.901 80.1001 141.401 82.5001C127.701 77.7001 116.801 68.5001 98.7005 75.2001C64.8005 87.6001 82.3006 137.8 118.301 125.4C133.601 120.1 139.901 107.7 147.101 99.8001C158.801 104 167.201 108.8 181.401 109.5C194.101 110.1 207.201 105 214.101 98.2001L201.701 92.1001C186.201 99.3001 167.501 97.0001 153.701 88.4001L188.101 25.1001L174.001 24.9001L153.101 62.9001L118.501 34.0001L107.101 25.0001L89.3006 24.9001C90.9006 27.8001 143.901 72.6001 146.201 73.8001Z" fill="white"/>
<path fill-rule="evenodd" clip-rule="evenodd" d="M329.4 94.6C326.5 101.7 312.101 118.2 298.201 114.3C283.301 110.2 284.4 88.7 302.9 86.3C310.4 85.4 324.8 90.9 329.4 94.6ZM340.9 74.4C339.9 77.8 338.601 80.7 336.101 83.1C322.401 78.3 311.5 69.1 293.4 75.8C259.5 88.2 277.001 138.4 313.001 126C328.301 120.7 334.6 108.3 341.8 100.4C353.5 104.6 361.901 109.4 376.101 110.1C388.801 110.7 401.9 105.6 408.8 98.8L396.4 92.7C380.9 99.9 362.201 97.6 348.4 89L382.8 25.7L368.701 25.5L347.8 63.5L313.001 34.6L301.601 25.6L283.8 25.5C285.6 28.3 338.6 73.1 340.9 74.4Z" fill="white"/>
<path fill-rule="evenodd" clip-rule="evenodd" d="M252.5 21.3C273 21.3 289.6 37.9001 289.6 58.4001C289.6 78.9001 273 95.5 252.5 95.5C232 95.5 215.4 78.9001 215.4 58.4001C215.4 37.9001 232 21.3 252.5 21.3ZM252.6 34.6C239.4 34.6 228.7 45.3 228.7 58.5C228.7 71.7 239.4 82.4001 252.6 82.4001C265.8 82.4001 276.5 71.7 276.5 58.5C276.6 45.3 265.9 34.6 252.6 34.6Z" fill="white"/>
<path fill-rule="evenodd" clip-rule="evenodd" d="M57.1005 21.5C77.6005 21.5 94.2004 38.1 94.2004 58.6C94.2004 79.1 77.6005 95.7 57.1005 95.7C36.6005 95.7 20.0004 79.1 20.0004 58.6C19.9004 38.2 36.6005 21.5 57.1005 21.5ZM57.2004 34.9C44.0004 34.9 33.3004 45.6 33.3004 58.8C33.3004 72 44.0004 82.7 57.2004 82.7C70.4004 82.7 81.1005 72 81.1005 58.8C81.1005 45.6 70.4004 34.9 57.2004 34.9Z" fill="white"/>
<path fill-rule="evenodd" clip-rule="evenodd" d="M193.701 77.9C198.801 77.9 202.9 73.8 202.9 68.7C202.9 63.6 198.801 59.5 193.701 59.5C188.601 59.5 184.5 63.6 184.5 68.7C184.5 73.7 188.601 77.9 193.701 77.9Z" fill="white"/>
<path d="M35.0005 154.6C33.8005 153.9 32.8005 153 32.1005 151.8C31.4005 150.6 31.0005 149.3 31.0005 147.8C31.0005 146.3 31.4005 145 32.1005 143.8C32.8005 142.6 33.8005 141.7 35.0005 141C36.2005 140.3 37.6005 140 39.2005 140C40.8005 140 42.2005 140.3 43.4005 141C44.6005 141.7 45.6005 142.6 46.3005 143.8C47.0005 145 47.4005 146.3 47.4005 147.8C47.4005 149.3 47.0005 150.6 46.3005 151.8C45.6005 153 44.6005 153.9 43.4005 154.6C42.2005 155.3 40.8005 155.6 39.2005 155.6C37.6005 155.6 36.2005 155.3 35.0005 154.6ZM41.6005 152C42.3005 151.6 42.9005 151 43.3005 150.3C43.7005 149.6 43.9005 148.7 43.9005 147.8C43.9005 146.9 43.7005 146 43.3005 145.3C42.9005 144.6 42.3005 144 41.6005 143.6C40.9005 143.2 40.1005 143 39.2005 143C38.3005 143 37.5005 143.2 36.8005 143.6C36.1005 144 35.5005 144.6 35.1005 145.3C34.7005 146 34.5005 146.9 34.5005 147.8C34.5005 148.7 34.7005 149.6 35.1005 150.3C35.5005 151 36.1005 151.6 36.8005 152C37.5005 152.4 38.3005 152.6 39.2005 152.6C40.1005 152.6 40.9005 152.4 41.6005 152Z" fill="white"/>
<path d="M57.6005 150V155.4H54.1005V150L48.3005 140.3H52.0005L56.0005 147L60.0005 140.3H63.4005L57.6005 150Z" fill="white"/>
<path d="M67.1004 155.1C66.0004 154.8 65.1004 154.4 64.4004 153.8L65.6004 151.2C66.2004 151.7 67.0004 152.1 67.9004 152.3C68.8004 152.6 69.7004 152.7 70.6004 152.7C71.6004 152.7 72.3004 152.6 72.8004 152.3C73.3004 152 73.5004 151.6 73.5004 151.1C73.5004 150.7 73.4004 150.4 73.1004 150.2C72.8004 150 72.5004 149.8 72.0004 149.6C71.5004 149.4 71.0004 149.3 70.2004 149.1C69.1004 148.8 68.1004 148.6 67.4004 148.3C66.7004 148 66.0004 147.6 65.5004 147C65.0004 146.4 64.7004 145.6 64.7004 144.6C64.7004 143.7 64.9004 142.9 65.4004 142.2C65.9004 141.5 66.6004 140.9 67.5004 140.5C68.4004 140.1 69.6004 139.9 71.0004 139.9C72.0004 139.9 72.9004 140 73.8004 140.2C74.7004 140.4 75.5004 140.8 76.2004 141.2L75.1004 143.9C73.7004 143.1 72.3004 142.7 71.0004 142.7C70.0004 142.7 69.3004 142.9 68.9004 143.2C68.4004 143.5 68.2004 143.9 68.2004 144.5C68.2004 145.1 68.5004 145.4 69.0004 145.7C69.5004 146 70.4004 146.2 71.4004 146.4C72.5004 146.7 73.5004 146.9 74.2004 147.2C74.9004 147.5 75.6004 147.9 76.1004 148.5C76.6004 149.1 76.9004 149.9 76.9004 150.9C76.9004 151.8 76.7004 152.5 76.2004 153.3C75.7004 154.1 75.0004 154.6 74.1004 155C73.1004 155.4 72.0004 155.6 70.6004 155.6C69.4004 155.6 68.2004 155.4 67.1004 155.1Z" fill="white"/>
<path d="M83.2004 143.1H78.4004V140.3H91.4004V143.1H86.6004V155.4H83.1004V143.1H83.2004Z" fill="white"/>
<path d="M106 152.5V155.3H94.4004V140.2H105.7V143H97.8004V146.3H104.7V149H97.8004V152.5H106Z" fill="white"/>
<path d="M119.401 155.3L116.501 151.1H116.301H113.301V155.3H109.801V140.2H116.301C117.601 140.2 118.801 140.4 119.801 140.9C120.801 141.3 121.501 142 122.101 142.8C122.601 143.6 122.901 144.6 122.901 145.7C122.901 146.8 122.601 147.8 122.101 148.6C121.601 149.4 120.801 150 119.801 150.5L123.201 155.4H119.401V155.3ZM118.501 143.8C118.001 143.3 117.201 143.1 116.101 143.1H113.301V148.4H116.101C117.101 148.4 117.901 148.2 118.501 147.7C119.001 147.2 119.301 146.6 119.301 145.8C119.301 144.9 119.001 144.2 118.501 143.8Z" fill="white"/>
<path d="M146.7 148.9C147.2 149.5 147.4 150.3 147.4 151.3C147.4 152.6 146.9 153.6 145.9 154.4C144.9 155.1 143.4 155.5 141.4 155.5H133.7V140.4H141C142.8 140.4 144.2 140.8 145.2 141.5C146.2 142.2 146.7 143.2 146.7 144.4C146.7 145.1 146.5 145.8 146.2 146.4C145.9 147 145.4 147.4 144.7 147.8C145.6 147.8 146.2 148.2 146.7 148.9ZM137.2 142.9V146.5H140.6C141.5 146.5 142.1 146.3 142.5 146C142.9 145.7 143.2 145.3 143.2 144.7C143.2 144.1 143 143.7 142.5 143.4C142.1 143.1 141.4 143 140.6 143H137.2V142.9ZM143.3 152.3C143.8 152 144 151.5 144 150.9C144 149.6 143.1 149 141.2 149H137.2V152.7H141.2C142.1 152.7 142.8 152.6 143.3 152.3Z" fill="white"/>
<path d="M161.001 152.1H154.101L152.801 155.3H149.301L156.001 140.2H159.401L166.101 155.3H162.501L161.001 152.1ZM159.901 149.5L157.501 143.7L155.101 149.5H159.901Z" fill="white"/>
<path d="M178.1 155.3L175.201 151.1H175H172V155.3H168.5V140.2H175C176.3 140.2 177.5 140.4 178.5 140.9C179.5 141.3 180.2 142 180.8 142.8C181.3 143.6 181.6 144.6 181.6 145.7C181.6 146.8 181.3 147.8 180.8 148.6C180.3 149.4 179.5 150 178.5 150.5L181.9 155.4H178.1V155.3ZM177.3 143.8C176.8 143.3 176 143.1 174.9 143.1H172.1V148.4H174.9C175.9 148.4 176.7 148.2 177.3 147.7C177.8 147.2 178.1 146.6 178.1 145.8C178.1 144.9 177.8 144.2 177.3 143.8Z" fill="white"/>
<path d="M204.001 155.6L202.201 153.9C200.801 155 199.101 155.6 197.201 155.6C196.101 155.6 195.101 155.4 194.301 155.1C193.401 154.7 192.701 154.3 192.301 153.6C191.801 153 191.601 152.3 191.601 151.5C191.601 150.6 191.901 149.7 192.401 149C192.901 148.3 193.801 147.6 194.901 147C194.401 146.4 194.001 145.9 193.701 145.4C193.501 144.9 193.301 144.4 193.301 143.8C193.301 143.1 193.501 142.4 193.901 141.9C194.301 141.3 194.801 140.9 195.501 140.6C196.201 140.3 197.001 140.1 197.901 140.1C199.201 140.1 200.201 140.4 201.001 141C201.801 141.6 202.201 142.5 202.201 143.5C202.201 144.3 202.001 145 201.501 145.6C201.001 146.2 200.301 146.8 199.301 147.3L202.001 149.9C202.301 149.2 202.601 148.4 202.701 147.5L205.401 148.3C205.101 149.6 204.701 150.8 204.001 151.7L205.801 153.3L204.001 155.6ZM200.201 152.1L196.601 148.7C195.901 149.1 195.501 149.5 195.201 149.8C194.901 150.2 194.801 150.6 194.801 151.1C194.801 151.7 195.001 152.1 195.501 152.5C196.001 152.8 196.601 153 197.401 153C198.501 153 199.401 152.7 200.201 152.1ZM196.701 142.7C196.401 143 196.301 143.3 196.301 143.7C196.301 144 196.401 144.3 196.501 144.6C196.701 144.9 197.001 145.2 197.401 145.7C198.101 145.3 198.601 145 198.901 144.7C199.201 144.4 199.301 144.1 199.301 143.7C199.301 143.3 199.201 143 198.901 142.8C198.601 142.6 198.301 142.5 197.801 142.5C197.401 142.3 197.001 142.5 196.701 142.7Z" fill="white"/>
<path d="M225.8 155.3L222.9 151.1H222.7H219.7V155.3H216.2V140.2H222.7C224 140.2 225.2 140.4 226.2 140.9C227.2 141.3 227.9 142 228.5 142.8C229 143.6 229.3 144.6 229.3 145.7C229.3 146.8 229 147.8 228.5 148.6C228 149.4 227.2 150 226.2 150.5L229.6 155.4H225.8V155.3ZM224.9 143.8C224.4 143.3 223.6 143.1 222.5 143.1H219.7V148.4H222.5C223.5 148.4 224.3 148.2 224.9 147.7C225.4 147.2 225.7 146.6 225.7 145.8C225.7 144.9 225.5 144.2 224.9 143.8Z" fill="white"/>
<path d="M244.6 152.5V155.3H233V140.2H244.3V143H236.5V146.3H243.4V149H236.5V152.5H244.6Z" fill="white"/>
<path d="M249.9 155.1C248.8 154.8 247.9 154.4 247.2 153.8L248.4 151.2C249 151.7 249.8 152.1 250.7 152.3C251.6 152.6 252.5 152.7 253.4 152.7C254.4 152.7 255.1 152.6 255.6 152.3C256.1 152 256.3 151.6 256.3 151.1C256.3 150.7 256.2 150.4 255.9 150.2C255.6 150 255.3 149.8 254.8 149.6C254.4 149.5 253.8 149.3 253 149.1C251.9 148.8 250.9 148.6 250.2 148.3C249.5 148 248.8 147.6 248.3 147C247.8 146.4 247.5 145.6 247.5 144.6C247.5 143.7 247.7 142.9 248.2 142.2C248.7 141.5 249.4 140.9 250.3 140.5C251.2 140.1 252.4 139.9 253.8 139.9C254.8 139.9 255.7 140 256.6 140.2C257.5 140.4 258.3 140.8 259 141.2L257.9 143.9C256.5 143.1 255.1 142.7 253.8 142.7C252.8 142.7 252.1 142.9 251.7 143.2C251.3 143.5 251 143.9 251 144.5C251 145.1 251.3 145.4 251.8 145.7C252.3 146 253.2 146.2 254.2 146.4C255.3 146.7 256.3 146.9 257 147.2C257.7 147.5 258.4 147.9 258.9 148.5C259.4 149.1 259.7 149.9 259.7 150.9C259.7 151.8 259.5 152.5 259 153.3C258.5 154 257.8 154.6 256.9 155C255.9 155.4 254.8 155.6 253.4 155.6C252.2 155.6 251 155.4 249.9 155.1Z" fill="white"/>
<path d="M266.101 143.1H261.301V140.3H274.301V143.1H269.501V155.4H266.001V143.1H266.101Z" fill="white"/>
<path d="M286.3 152.1H279.4L278.1 155.3H274.5L281.201 140.2H284.6L291.3 155.3H287.701L286.3 152.1ZM285.3 149.5L282.9 143.7L280.5 149.5H285.3Z" fill="white"/>
<path d="M295.3 153.8C294.1 152.6 293.5 150.9 293.5 148.7V140.2H297V148.5C297 151.2 298.1 152.6 300.3 152.6C301.4 152.6 302.2 152.3 302.8 151.6C303.4 150.9 303.701 149.9 303.701 148.5V140.2H307.1V148.7C307.1 150.9 306.5 152.6 305.3 153.8C304.1 155 302.4 155.6 300.3 155.6C298.1 155.6 296.5 155 295.3 153.8Z" fill="white"/>
<path d="M321.1 155.3L318.201 151.1H318H315V155.3H311.5V140.2H318C319.3 140.2 320.5 140.4 321.5 140.9C322.5 141.3 323.2 142 323.8 142.8C324.3 143.6 324.6 144.6 324.6 145.7C324.6 146.8 324.3 147.8 323.8 148.6C323.3 149.4 322.5 150 321.5 150.5L324.9 155.4H321.1V155.3ZM320.201 143.8C319.701 143.3 318.9 143.1 317.8 143.1H315V148.4H317.8C318.8 148.4 319.601 148.2 320.201 147.7C320.701 147.2 321 146.6 321 145.8C321 144.9 320.701 144.2 320.201 143.8Z" fill="white"/>
<path d="M338.2 152.1H331.3L330 155.3H326.4L333.1 140.2H336.5L343.2 155.3H339.5L338.2 152.1ZM337.1 149.5L334.7 143.7L332.3 149.5H337.1Z" fill="white"/>
<path d="M359.501 140.2V155.3H356.701L349.201 146.1V155.3H345.801V140.2H348.701L356.101 149.4V140.2H359.501Z" fill="white"/>
<path d="M367.2 143.1H362.4V140.3H375.4V143.1H370.6V155.4H367.1V143.1H367.2Z" fill="white"/>
</g>
<defs>
<filter id="filter0_d_1_215" x="-5" y="0.300049" width="438.801" height="184.3" filterUnits="userSpaceOnUse" color-interpolation-filters="sRGB">
<feFlood flood-opacity="0" result="BackgroundImageFix"/>
<feColorMatrix in="SourceAlpha" type="matrix" values="0 0 0 0 0 0 0 0 0 0 0 0 0 0 0 0 0 0 127 0" result="hardAlpha"/>
<feOffset dy="4"/>
<feGaussianBlur stdDeviation="12.5"/>
<feComposite in2="hardAlpha" operator="out"/>
<feColorMatrix type="matrix" values="0 0 0 0 0 0 0 0 0 0 0 0 0 0 0 0 0 0 0.05 0"/>
<feBlend mode="normal" in2="BackgroundImageFix" result="effect1_dropShadow_1_215"/>
<feBlend mode="normal" in="SourceGraphic" in2="effect1_dropShadow_1_215" result="shape"/>
</filter>
</defs>
</svg>
