<svg width="389" height="135" viewBox="0 0 389 135" fill="none" xmlns="http://www.w3.org/2000/svg">
<path fill-rule="evenodd" clip-rule="evenodd" d="M114.701 72.8001C111.801 79.9001 97.4006 96.4001 83.5005 92.5001C68.6005 88.4001 69.7005 66.9001 88.2005 64.5001C95.7005 63.6001 110.101 69.1001 114.701 72.8001ZM126.201 52.5001C125.201 55.9001 123.901 58.8001 121.401 61.2001C107.701 56.4001 96.8005 47.2001 78.7005 53.9001C44.8005 66.3001 62.3006 116.5 98.3006 104.1C113.601 98.8001 119.901 86.4001 127.101 78.5001C138.801 82.7001 147.201 87.5001 161.401 88.2001C174.101 88.8001 187.201 83.7001 194.101 76.9001L181.701 70.8001C166.201 78.0001 147.501 75.7001 133.701 67.1001L168.101 3.80008L154.001 3.6001L133.101 41.6001L98.5005 12.7001L87.1006 3.70007L69.3006 3.6001C70.9006 6.5001 123.901 51.3001 126.201 52.5001Z" fill="black"/>
<path fill-rule="evenodd" clip-rule="evenodd" d="M309.4 73.3C306.5 80.4 292.101 96.9 278.201 93C263.301 88.9 264.4 67.4 282.9 65C290.4 64.1 304.8 69.6 309.4 73.3ZM320.9 53.1C319.9 56.5 318.601 59.4 316.101 61.8C302.401 57 291.5 47.8 273.4 54.5C239.5 66.9 257.001 117.1 293.001 104.7C308.301 99.3999 314.6 87 321.8 79.1C333.5 83.3 341.901 88.1 356.101 88.8C368.801 89.4 381.9 84.3 388.8 77.5L376.4 71.4C360.9 78.6 342.201 76.2999 328.4 67.7L362.8 4.39996L348.701 4.19995L327.8 42.2L293.001 13.3L281.601 4.29996L263.8 4.19995C265.6 6.99995 318.6 51.8 320.9 53.1Z" fill="black"/>
<path fill-rule="evenodd" clip-rule="evenodd" d="M232.5 0C253 0 269.6 16.6 269.6 37.1C269.6 57.6 253 74.2 232.5 74.2C212 74.2 195.4 57.6 195.4 37.1C195.4 16.6 212 0 232.5 0ZM232.6 13.3C219.4 13.3 208.7 24 208.7 37.2C208.7 50.4 219.4 61.1 232.6 61.1C245.8 61.1 256.5 50.4 256.5 37.2C256.6 24 245.9 13.3 232.6 13.3Z" fill="black"/>
<path fill-rule="evenodd" clip-rule="evenodd" d="M37.1005 0.199951C57.6005 0.199951 74.2004 16.8 74.2004 37.3C74.2004 57.8 57.6005 74.4 37.1005 74.4C16.6005 74.4 0.000446772 57.8 0.000446772 37.3C-0.0995532 16.9 16.6005 0.199951 37.1005 0.199951ZM37.2004 13.6C24.0004 13.6 13.3004 24.3 13.3004 37.5C13.3004 50.7 24.0004 61.4 37.2004 61.4C50.4004 61.4 61.1005 50.7 61.1005 37.5C61.1005 24.3 50.4004 13.6 37.2004 13.6Z" fill="black"/>
<path fill-rule="evenodd" clip-rule="evenodd" d="M173.701 56.6C178.801 56.6 182.9 52.5 182.9 47.4C182.9 42.3 178.801 38.2 173.701 38.2C168.601 38.2 164.5 42.3 164.5 47.4C164.5 52.4 168.601 56.6 173.701 56.6Z" fill="black"/>
<path d="M15.0005 133.3C13.8005 132.6 12.8005 131.7 12.1005 130.5C11.4005 129.3 11.0005 128 11.0005 126.5C11.0005 125 11.4005 123.7 12.1005 122.5C12.8005 121.3 13.8005 120.4 15.0005 119.7C16.2005 119 17.6005 118.7 19.2005 118.7C20.8005 118.7 22.2005 119 23.4005 119.7C24.6005 120.4 25.6005 121.3 26.3005 122.5C27.0005 123.7 27.4005 125 27.4005 126.5C27.4005 128 27.0005 129.3 26.3005 130.5C25.6005 131.7 24.6005 132.6 23.4005 133.3C22.2005 134 20.8005 134.3 19.2005 134.3C17.6005 134.3 16.2005 134 15.0005 133.3ZM21.6005 130.7C22.3005 130.3 22.9005 129.7 23.3005 129C23.7005 128.3 23.9005 127.4 23.9005 126.5C23.9005 125.6 23.7005 124.7 23.3005 124C22.9005 123.3 22.3005 122.7 21.6005 122.3C20.9005 121.9 20.1005 121.7 19.2005 121.7C18.3005 121.7 17.5005 121.9 16.8005 122.3C16.1005 122.7 15.5005 123.3 15.1005 124C14.7005 124.7 14.5005 125.6 14.5005 126.5C14.5005 127.4 14.7005 128.3 15.1005 129C15.5005 129.7 16.1005 130.3 16.8005 130.7C17.5005 131.1 18.3005 131.3 19.2005 131.3C20.1005 131.3 20.9005 131.1 21.6005 130.7Z" fill="black"/>
<path d="M37.6005 128.7V134.1H34.1005V128.7L28.3005 119H32.0005L36.0005 125.7L40.0005 119H43.4005L37.6005 128.7Z" fill="black"/>
<path d="M47.1004 133.8C46.0004 133.5 45.1004 133.1 44.4004 132.5L45.6004 129.9C46.2004 130.4 47.0004 130.8 47.9004 131C48.8004 131.3 49.7004 131.4 50.6004 131.4C51.6004 131.4 52.3004 131.3 52.8004 131C53.3004 130.7 53.5004 130.3 53.5004 129.8C53.5004 129.4 53.4004 129.1 53.1004 128.9C52.8004 128.7 52.5004 128.5 52.0004 128.3C51.5004 128.1 51.0004 128 50.2004 127.8C49.1004 127.5 48.1004 127.3 47.4004 127C46.7004 126.7 46.0004 126.3 45.5004 125.7C45.0004 125.1 44.7004 124.3 44.7004 123.3C44.7004 122.4 44.9004 121.6 45.4004 120.9C45.9004 120.2 46.6004 119.6 47.5004 119.2C48.4004 118.8 49.6004 118.6 51.0004 118.6C52.0004 118.6 52.9004 118.7 53.8004 118.9C54.7004 119.1 55.5004 119.5 56.2004 119.9L55.1004 122.6C53.7004 121.8 52.3004 121.4 51.0004 121.4C50.0004 121.4 49.3004 121.6 48.9004 121.9C48.4004 122.2 48.2004 122.6 48.2004 123.2C48.2004 123.8 48.5004 124.1 49.0004 124.4C49.5004 124.7 50.4004 124.9 51.4004 125.1C52.5004 125.4 53.5004 125.6 54.2004 125.9C54.9004 126.2 55.6004 126.6 56.1004 127.2C56.6004 127.8 56.9004 128.6 56.9004 129.6C56.9004 130.5 56.7004 131.2 56.2004 132C55.7004 132.8 55.0004 133.3 54.1004 133.7C53.1004 134.1 52.0004 134.3 50.6004 134.3C49.4004 134.3 48.2004 134.1 47.1004 133.8Z" fill="black"/>
<path d="M63.2004 121.8H58.4004V119H71.4004V121.8H66.6004V134.1H63.1004V121.8H63.2004Z" fill="black"/>
<path d="M86.0004 131.2V134H74.4004V118.9H85.7004V121.7H77.8004V125H84.7004V127.7H77.8004V131.2H86.0004Z" fill="black"/>
<path d="M99.4005 134L96.5005 129.8H96.3005H93.3005V134H89.8005V118.9H96.3005C97.6005 118.9 98.8005 119.1 99.8005 119.6C100.801 120 101.501 120.7 102.101 121.5C102.601 122.3 102.901 123.3 102.901 124.4C102.901 125.5 102.601 126.5 102.101 127.3C101.601 128.1 100.801 128.7 99.8005 129.2L103.201 134.1H99.4005V134ZM98.5005 122.5C98.0005 122 97.2005 121.8 96.1005 121.8H93.3005V127.1H96.1005C97.1005 127.1 97.9005 126.9 98.5005 126.4C99.0005 125.9 99.3005 125.3 99.3005 124.5C99.3005 123.6 99.0005 122.9 98.5005 122.5Z" fill="black"/>
<path d="M126.7 127.6C127.2 128.2 127.4 129 127.4 130C127.4 131.3 126.9 132.3 125.9 133.1C124.9 133.8 123.4 134.2 121.4 134.2H113.7V119.1H121C122.8 119.1 124.2 119.5 125.2 120.2C126.2 120.9 126.7 121.9 126.7 123.1C126.7 123.8 126.5 124.5 126.2 125.1C125.9 125.7 125.4 126.1 124.7 126.5C125.6 126.5 126.2 126.9 126.7 127.6ZM117.2 121.6V125.2H120.6C121.5 125.2 122.1 125 122.5 124.7C122.9 124.4 123.2 124 123.2 123.4C123.2 122.8 123 122.4 122.5 122.1C122.1 121.8 121.4 121.7 120.6 121.7H117.2V121.6ZM123.3 131C123.8 130.7 124 130.2 124 129.6C124 128.3 123.1 127.7 121.2 127.7H117.2V131.4H121.2C122.1 131.4 122.8 131.3 123.3 131Z" fill="black"/>
<path d="M141.001 130.8H134.101L132.801 134H129.301L136.001 118.9H139.401L146.101 134H142.501L141.001 130.8ZM139.901 128.2L137.501 122.4L135.101 128.2H139.901Z" fill="black"/>
<path d="M158.1 134L155.201 129.8H155H152V134H148.5V118.9H155C156.3 118.9 157.5 119.1 158.5 119.6C159.5 120 160.2 120.7 160.8 121.5C161.3 122.3 161.6 123.3 161.6 124.4C161.6 125.5 161.3 126.5 160.8 127.3C160.3 128.1 159.5 128.7 158.5 129.2L161.9 134.1H158.1V134ZM157.3 122.5C156.8 122 156 121.8 154.9 121.8H152.1V127.1H154.9C155.9 127.1 156.7 126.9 157.3 126.4C157.8 125.9 158.1 125.3 158.1 124.5C158.1 123.6 157.8 122.9 157.3 122.5Z" fill="black"/>
<path d="M184.001 134.3L182.201 132.6C180.801 133.7 179.101 134.3 177.201 134.3C176.101 134.3 175.101 134.1 174.301 133.8C173.401 133.4 172.701 133 172.301 132.3C171.801 131.7 171.601 131 171.601 130.2C171.601 129.3 171.901 128.4 172.401 127.7C172.901 127 173.801 126.3 174.901 125.7C174.401 125.1 174.001 124.6 173.701 124.1C173.501 123.6 173.301 123.1 173.301 122.5C173.301 121.8 173.501 121.1 173.901 120.6C174.301 120 174.801 119.6 175.501 119.3C176.201 119 177.001 118.8 177.901 118.8C179.201 118.8 180.201 119.1 181.001 119.7C181.801 120.3 182.201 121.2 182.201 122.2C182.201 123 182.001 123.7 181.501 124.3C181.001 124.9 180.301 125.5 179.301 126L182.001 128.6C182.301 127.9 182.601 127.1 182.701 126.2L185.401 127C185.101 128.3 184.701 129.5 184.001 130.4L185.801 132L184.001 134.3ZM180.201 130.8L176.601 127.4C175.901 127.8 175.501 128.2 175.201 128.5C174.901 128.9 174.801 129.3 174.801 129.8C174.801 130.4 175.001 130.8 175.501 131.2C176.001 131.5 176.601 131.7 177.401 131.7C178.501 131.7 179.401 131.4 180.201 130.8ZM176.701 121.4C176.401 121.7 176.301 122 176.301 122.4C176.301 122.7 176.401 123 176.501 123.3C176.701 123.6 177.001 123.9 177.401 124.4C178.101 124 178.601 123.7 178.901 123.4C179.201 123.1 179.301 122.8 179.301 122.4C179.301 122 179.201 121.7 178.901 121.5C178.601 121.3 178.301 121.2 177.801 121.2C177.401 121 177.001 121.2 176.701 121.4Z" fill="black"/>
<path d="M205.8 134L202.9 129.8H202.7H199.7V134H196.2V118.9H202.7C204 118.9 205.2 119.1 206.2 119.6C207.2 120 207.9 120.7 208.5 121.5C209 122.3 209.3 123.3 209.3 124.4C209.3 125.5 209 126.5 208.5 127.3C208 128.1 207.2 128.7 206.2 129.2L209.6 134.1H205.8V134ZM204.9 122.5C204.4 122 203.6 121.8 202.5 121.8H199.7V127.1H202.5C203.5 127.1 204.3 126.9 204.9 126.4C205.4 125.9 205.7 125.3 205.7 124.5C205.7 123.6 205.5 122.9 204.9 122.5Z" fill="black"/>
<path d="M224.6 131.2V134H213V118.9H224.3V121.7H216.5V125H223.4V127.7H216.5V131.2H224.6Z" fill="black"/>
<path d="M229.9 133.8C228.8 133.5 227.9 133.1 227.2 132.5L228.4 129.9C229 130.4 229.8 130.8 230.7 131C231.6 131.3 232.5 131.4 233.4 131.4C234.4 131.4 235.1 131.3 235.6 131C236.1 130.7 236.3 130.3 236.3 129.8C236.3 129.4 236.2 129.1 235.9 128.9C235.6 128.7 235.3 128.5 234.8 128.3C234.4 128.2 233.8 128 233 127.8C231.9 127.5 230.9 127.3 230.2 127C229.5 126.7 228.8 126.3 228.3 125.7C227.8 125.1 227.5 124.3 227.5 123.3C227.5 122.4 227.7 121.6 228.2 120.9C228.7 120.2 229.4 119.6 230.3 119.2C231.2 118.8 232.4 118.6 233.8 118.6C234.8 118.6 235.7 118.7 236.6 118.9C237.5 119.1 238.3 119.5 239 119.9L237.9 122.6C236.5 121.8 235.1 121.4 233.8 121.4C232.8 121.4 232.1 121.6 231.7 121.9C231.3 122.2 231 122.6 231 123.2C231 123.8 231.3 124.1 231.8 124.4C232.3 124.7 233.2 124.9 234.2 125.1C235.3 125.4 236.3 125.6 237 125.9C237.7 126.2 238.4 126.6 238.9 127.2C239.4 127.8 239.7 128.6 239.7 129.6C239.7 130.5 239.5 131.2 239 132C238.5 132.7 237.8 133.3 236.9 133.7C235.9 134.1 234.8 134.3 233.4 134.3C232.2 134.3 231 134.1 229.9 133.8Z" fill="black"/>
<path d="M246.101 121.8H241.301V119H254.301V121.8H249.501V134.1H246.001V121.8H246.101Z" fill="black"/>
<path d="M266.3 130.8H259.4L258.1 134H254.5L261.201 118.9H264.6L271.3 134H267.701L266.3 130.8ZM265.3 128.2L262.9 122.4L260.5 128.2H265.3Z" fill="black"/>
<path d="M275.3 132.5C274.1 131.3 273.5 129.6 273.5 127.4V118.9H277V127.2C277 129.9 278.1 131.3 280.3 131.3C281.4 131.3 282.2 131 282.8 130.3C283.4 129.6 283.701 128.6 283.701 127.2V118.9H287.1V127.4C287.1 129.6 286.5 131.3 285.3 132.5C284.1 133.7 282.4 134.3 280.3 134.3C278.1 134.3 276.5 133.7 275.3 132.5Z" fill="black"/>
<path d="M301.1 134L298.201 129.8H298H295V134H291.5V118.9H298C299.3 118.9 300.5 119.1 301.5 119.6C302.5 120 303.2 120.7 303.8 121.5C304.3 122.3 304.6 123.3 304.6 124.4C304.6 125.5 304.3 126.5 303.8 127.3C303.3 128.1 302.5 128.7 301.5 129.2L304.9 134.1H301.1V134ZM300.201 122.5C299.701 122 298.9 121.8 297.8 121.8H295V127.1H297.8C298.8 127.1 299.601 126.9 300.201 126.4C300.701 125.9 301 125.3 301 124.5C301 123.6 300.701 122.9 300.201 122.5Z" fill="black"/>
<path d="M318.2 130.8H311.3L310 134H306.4L313.1 118.9H316.5L323.2 134H319.5L318.2 130.8ZM317.1 128.2L314.7 122.4L312.3 128.2H317.1Z" fill="black"/>
<path d="M339.501 118.9V134H336.701L329.201 124.8V134H325.801V118.9H328.701L336.101 128.1V118.9H339.501Z" fill="black"/>
<path d="M347.2 121.8H342.4V119H355.4V121.8H350.6V134.1H347.1V121.8H347.2Z" fill="black"/>
</svg>
